<?xml version="1.0" encoding="UTF-8" standalone="no"?>
<!-- Created with Inkscape (http://www.inkscape.org/) -->

<svg
   xmlns:dc="http://purl.org/dc/elements/1.1/"
   xmlns:cc="http://creativecommons.org/ns#"
   xmlns:rdf="http://www.w3.org/1999/02/22-rdf-syntax-ns#"
   xmlns:svg="http://www.w3.org/2000/svg"
   xmlns="http://www.w3.org/2000/svg"
   xmlns:sodipodi="http://sodipodi.sourceforge.net/DTD/sodipodi-0.dtd"
   xmlns:inkscape="http://www.inkscape.org/namespaces/inkscape"
   id="svg4278"
   version="1.1"
   inkscape:version="0.91 r13725"
   width="125.4"
   height="127.2"
   viewBox="0 0 125.4 127.2"
   sodipodi:docname="cndcec_logo.svg">
  <metadata
     id="metadata4284">
    <rdf:RDF>
      <cc:Work
         rdf:about="">
        <dc:format>image/svg+xml</dc:format>
        <dc:type
           rdf:resource="http://purl.org/dc/dcmitype/StillImage" />
        <dc:title></dc:title>
      </cc:Work>
    </rdf:RDF>
  </metadata>
  <defs
     id="defs4282" />
  <sodipodi:namedview
     pagecolor="#ffffff"
     bordercolor="#666666"
     borderopacity="1"
     objecttolerance="10"
     gridtolerance="10"
     guidetolerance="10"
     inkscape:pageopacity="0"
     inkscape:pageshadow="2"
     inkscape:window-width="1344"
     inkscape:window-height="717"
     id="namedview4280"
     showgrid="false"
     inkscape:zoom="3.7106919"
     inkscape:cx="25.031785"
     inkscape:cy="79.770617"
     inkscape:window-x="6"
     inkscape:window-y="41"
     inkscape:window-maximized="0"
     inkscape:current-layer="svg4278" />
  <path
     style="fill:#e00000;fill-opacity:1"
     d="M 56.026648,127.11931 C 49.054903,126.40154 41.749228,124.2082 35.665045,121.00626 27.438705,116.67697 20.82831,109.76124 17.185872,101.67354 16.008911,99.060213 15.661842,98.591533 13.15841,96.234903 3.6499184,87.284013 -1.0023917,74.185983 0.18102028,59.698609 0.58028698,54.810778 1.141245,51.951838 2.5089242,47.834377 4.6218896,41.473201 8.2219015,35.851552 13.15841,31.204531 c 2.503432,-2.356625 2.850501,-2.825303 4.027462,-5.438636 3.854832,-8.559299 10.788364,-15.556338 19.790776,-19.972051 7.526793,-3.691916 14.893473,-5.47341496 22.65,-5.47749496 8.259228,-0.0043 14.493825,1.71556896 21.6,5.95870496 1.428951,0.853234 2.014194,1.010174 4.368477,1.171457 11.930351,0.817305 23.862935,8.620376 31.919645,20.873208 6.96192,10.587849 9.17908,21.505917 6.71796,33.081603 -0.4565,2.147082 -0.45787,2.503896 -0.0174,4.508625 2.51278,11.435606 0.25331,22.634096 -6.7006,33.209776 -8.05671,12.252827 -19.989284,20.055897 -31.919644,20.873207 -2.354283,0.16128 -2.939526,0.31822 -4.368477,1.17146 -4.612626,2.75422 -9.38184,4.58133 -14.153268,5.4222 -2.66022,0.4688 -8.794308,0.76462 -11.046732,0.53272 z m 10.695201,-5.04043 c 2.237502,-0.43097 4.179594,-1.00974 6.554799,-1.95345 0.876561,-0.34827 0.829515,-0.37552 -1.806423,-1.04623 -8.523813,-2.16887 -15.395322,-6.68317 -20.107602,-13.20987 l -0.614025,-0.85045 -2.985975,0.8728 c -2.796573,0.81744 -3.318984,0.87264 -8.235975,0.87013 -4.774092,-0.002 -5.544219,-0.0789 -8.495685,-0.84345 -1.785127,-0.46242 -4.207844,-1.23233 -5.383815,-1.71089 -1.175971,-0.47857 -2.201627,-0.80662 -2.279235,-0.72901 -0.329382,0.32938 2.405116,3.81213 5.197083,6.61919 6.921579,6.95898 15.348045,10.78752 27.611652,12.54527 1.718709,0.24634 8.11368,-0.0957 10.545201,-0.56404 z m 17.921043,-9.53416 c 1.870158,-1.85625 3.974721,-4.23439 4.676811,-5.28477 3.120048,-4.6678 5.023536,-9.899337 5.318793,-14.618107 l 0.17069,-2.72788 -3.279095,-0.17299 c -3.78735,-0.1998 -6.348345,-0.93128 -8.727108,-2.49267 -5.382252,-3.53285 -6.17175,-11.19276 -1.450914,-14.07712 1.306974,-0.79855 1.792002,-0.91323 4.248336,-1.004514 2.59005,-0.09625 2.901384,-0.04174 4.721028,0.826694 1.31082,0.6256 2.450331,1.47926 3.483315,2.60951 1.568998,1.71673 3.598958,5.50015 4.215648,7.85709 0.37542,1.43485 0.21121,1.41823 3.174324,0.32125 6.45901,-2.39119 13.48287,-9.69351 16.65645,-17.316776 1.12292,-2.69739 1.07668,-3.236769 -0.58068,-6.773493 -3.23565,-6.904698 -9.48883,-13.27149 -15.43648,-15.716952 -3.578074,-1.47117 -3.427194,-1.471389 -3.813614,0.0055 -0.72451,2.768994 -2.71944,6.321543 -4.611423,8.211948 -2.477463,2.475402 -4.411893,3.219261 -8.006655,3.078849 -3.392415,-0.13251 -5.105217,-1.086918 -6.37452,-3.552015 -0.752796,-1.461993 -0.834591,-1.88973 -0.722853,-3.779973 0.36048,-6.097995 5.160321,-9.814365 13.225146,-10.239819 l 3.279095,-0.172989 -0.17069,-2.727879 c -0.295257,-4.718772 -2.198745,-9.950303 -5.318793,-14.618109 -0.70209,-1.050374 -2.817651,-3.439344 -4.701246,-5.308824 l -3.424722,-3.399054 -2.308545,0.201874 c -8.453379,0.739216 -15.760998,3.917898 -20.863374,9.07519 -1.130157,1.142322 -2.310516,2.480771 -2.623017,2.974333 l -0.568182,0.897384 2.268012,1.774663 c 2.595423,2.030857 4.239402,4.021022 5.440593,6.586268 0.710622,1.517595 0.837426,2.174523 0.837426,4.338396 0,2.181177 -0.120618,2.795616 -0.833934,4.248162 -2.064636,4.204272 -5.773806,5.459796 -10.014228,3.389739 -1.89318,-0.924198 -3.511827,-2.663718 -4.561287,-4.901898 -0.720834,-1.53732 -0.789033,-2.003475 -0.77334,-5.286003 0.01449,-3.031068 0.138228,-3.962379 0.782976,-5.893 l 0.765765,-2.293 -1.473732,-0.475963 c -2.723088,-0.879458 -5.337033,-1.169753 -9.062859,-1.006484 -5.753937,0.252143 -11.110217,1.882983 -16.108566,4.904616 -2.486636,1.503236 -2.5889,1.666661 -3.285172,5.249936 -1.549591,7.974765 -0.338351,16.452441 3.193398,22.35114 1.852148,3.093444 1.811623,3.078819 4.099792,1.479276 5.981382,-4.181283 12.09021,-4.537611 16.328778,-0.952452 1.237989,1.047128 2.792409,4.156586 2.792409,5.585915 0,1.429329 -1.55442,4.538787 -2.792409,5.585931 -4.238568,3.585163 -10.347396,3.228833 -16.328778,-0.952452 -2.288169,-1.599543 -2.247644,-1.614168 -4.099792,1.479276 -3.531749,5.898699 -4.742989,14.376379 -3.193398,22.351139 0.696367,3.58376 0.798779,3.74748 3.275528,5.2364 7.862135,4.726367 17.456003,6.233177 25.146203,3.949427 l 1.527666,-0.45367 -0.775299,-2.323027 c -0.655227,-1.96325 -0.777966,-2.88057 -0.79251,-5.92302 -0.01569,-3.28253 0.05251,-3.74869 0.77334,-5.28601 1.04946,-2.23818 2.668107,-3.9777 4.561287,-4.90189 4.240422,-2.07006 7.949592,-0.81454 10.014228,3.38973 0.713316,1.45255 0.833934,2.06699 0.833934,4.24817 0,2.16387 -0.126804,2.8208 -0.837426,4.33839 -1.200357,2.56347 -2.844825,4.55515 -5.433489,6.580707 l -2.260908,1.7691 0.515913,0.88592 c 0.947547,1.62711 5.868822,6.02879 8.252205,7.38092 4.177158,2.36976 9.031878,3.99774 13.449873,4.51029 4.327956,0.50209 3.796248,0.71536 7.580076,-3.04033 z m 10.635474,0.3758 c 11.681594,-4.97425 22.285064,-18.336077 24.804184,-31.256677 0.51105,-2.62114 0.87338,-8.85816 0.56178,-9.670163 -0.13148,-0.342636 -0.48786,0.02694 -1.27508,1.322313 -2.75186,4.52816 -6.67921,8.78015 -10.51698,11.38633 -2.27557,1.54531 -6.9487,3.79429 -8.45728,4.07013 l -1.081664,0.19778 -0.17424,3.34974 c -0.3875,7.44976 -3.53593,14.859157 -9.099284,21.413927 l -1.072971,1.26417 2.05491,-0.57001 c 1.130199,-0.3135 3.045678,-0.9919 4.256625,-1.50754 z M 56.051398,95.846663 c 2.046213,-2.04848 2.982672,-3.89556 2.968662,-5.85539 -0.009,-1.26423 -1.002531,-3.34829 -1.799496,-3.77481 -1.042914,-0.55815 -2.599092,-0.0916 -3.84285,1.15219 -1.297557,1.29756 -1.851066,2.88015 -1.851066,5.29257 0,1.48982 0.672402,4.94753 1.095132,5.63152 0.249879,0.40432 1.406118,-0.42034 3.429618,-2.44608 z m -42.156465,-11.0527 c 0.01547,-4.76013 0.120527,-6.03685 0.68375,-8.30977 0.944348,-3.81099 2.433012,-7.274279 4.392862,-10.219751 l 1.6932,-2.544723 -1.657052,-2.490396 c -2.634719,-3.959739 -4.279679,-8.384673 -4.984259,-13.407636 -0.34195,-2.43777 -0.4336,-9.434046 -0.13588,-10.372671 0.347655,-1.096056 -2.454717,2.284593 -3.814106,4.601157 -7.4932764,12.769443 -7.5033941,30.5498 -0.02464,43.29767 1.052286,1.79367 3.495888,5.07524 3.77618,5.07112 0.02841,-3e-4 0.05989,-2.53167 0.06994,-5.625 z m 79.775562,-0.14924 c -0.393435,-1.35092 -1.930629,-4.4477 -2.724246,-5.48819 -1.849461,-2.42477 -5.376051,-3.42908 -7.222044,-2.05671 -0.931284,0.69234 -1.149777,1.46444 -0.85662,3.02709 0.215334,1.14784 1.916949,3.20048 3.205563,3.86685 1.420086,0.73436 3.908922,1.28548 5.898717,1.30621 1.827384,0.019 1.888179,-0.004 1.69863,-0.65525 z M 37.796509,66.88387 c 1.24302,-0.519366 2.930139,-2.346741 2.930139,-3.173727 0,-0.323781 -0.487047,-1.127799 -1.082325,-1.786701 -1.27776,-1.414326 -2.878647,-1.949085 -5.067675,-1.692807 -1.532292,0.179394 -5.125245,1.801293 -6.419673,2.897913 -0.699898,0.592941 -0.704019,0.621954 -0.15,1.055838 3.349254,2.622993 7.339299,3.723255 9.789534,2.699484 z M 120.69495,51.719719 C 120.35641,42.433795 116.90502,34.076578 109.96947,25.74892 104.61907,19.32459 97.764696,14.7585 90.703039,12.914445 l -1.715481,-0.447975 1.062606,1.251625 c 5.485142,6.460843 8.630582,13.815815 9.115482,21.314676 l 0.211,3.263052 1.950004,0.656757 c 4.6712,1.573257 9.14161,4.514646 13.00109,8.554326 2.17068,2.27202 5.89323,7.45569 5.9035,8.220645 0.002,0.188193 0.1362,0.139668 0.29704,-0.107832 0.16671,-0.256515 0.23837,-1.933392 0.16667,-3.9 z M 88.904704,50.069086 c 0.675429,-0.395799 1.594125,-1.19958 2.041545,-1.786179 0.803571,-1.053537 2.329524,-4.136601 2.738349,-5.532615 l 0.210684,-0.71943 -2.509317,0.163119 c -5.261994,0.342057 -8.659317,2.832882 -8.659317,6.348771 0,2.410314 3.284706,3.221826 6.178056,1.526334 z M 57.245392,41.209687 c 0.797925,-0.427035 1.781256,-2.455563 1.781256,-3.674574 0,-1.568286 -0.827271,-3.622428 -2.020104,-5.015985 -1.416141,-1.654443 -4.006533,-3.695061 -4.302054,-3.389005 -0.45852,0.474868 -1.177842,3.963937 -1.177842,5.713132 0,0.982812 0.153645,2.245824 0.34143,2.806698 0.921843,2.753304 3.587223,4.517763 5.377314,3.559734 z M 25.630963,23.239758 c 1.184873,-0.482847 3.614873,-1.256255 5.4,-1.718684 2.951466,-0.764564 3.721593,-0.841023 8.495685,-0.84345 4.916991,-0.0025 5.439402,0.05269 8.235975,0.870134 l 2.985975,0.872804 0.614025,-0.850451 c 4.71228,-6.5267 11.583789,-11.041 20.107602,-13.209872 C 74.504647,7.588135 74.551669,7.718624 70.760251,6.389989 66.046066,4.737986 57.666505,4.254046 52.426648,5.33118 42.684817,7.333763 35.084233,11.021372 29.234527,16.583401 c -2.836666,2.697164 -6.589773,7.54567 -5.832879,7.535289 0.04125,-5.7e-4 1.044442,-0.396085 2.229315,-0.878932 z"
     id="path4828"
     inkscape:connector-curvature="0" />
</svg>
